<?xml version="1.0" encoding="utf-8"?>
<!-- Generator: Adobe Illustrator 17.1.0, SVG Export Plug-In . SVG Version: 6.00 Build 0)  -->
<!DOCTYPE svg PUBLIC "-//W3C//DTD SVG 1.1//EN" "http://www.w3.org/Graphics/SVG/1.1/DTD/svg11.dtd">
<svg version="1.1" xmlns="http://www.w3.org/2000/svg" xmlns:xlink="http://www.w3.org/1999/xlink" x="0px" y="0px"
	 viewBox="0 0 430.7 462" enable-background="new 0 0 430.7 462" xml:space="preserve">
<g id="Layer_1_copy_7">
	<g>
		<path fill="#FFFFFF" d="M104.7,61.4c3.3-1.5,6.6-2.8,9.9-3.9c1.7-0.6,3.3-1.1,5-1.6c0.2-0.1,0.4-0.1,0.7-0.2l-0.6-2.2
			c-0.8-2.6-1.4-5.3-2.1-7.9c-0.7-2.6-1.4-5.3-2.1-7.9c-0.4-1.6-0.8-3.2-1.2-4.9c-6-1.4-11.3-3.2-16.4-4.9c-3.4-1.2-6.6-2.3-9.8-3.1
			c10,17.3,13.6,23.5,15,37.5C103.6,61.9,104.1,61.7,104.7,61.4z"/>
		<path fill="#FFFFFF" d="M106.4,190.2c1.6-0.4,3.1-0.8,4.7-1.2l4.7-1.3c2.4-0.7,4.7-1.4,7.1-2.1l1.7-1.1l1.2-0.8l0.8-0.5
			c7.3-5.8,15.2-10.8,23.6-14.8c2.1-1,4.2-2,6.4-2.9l3.2-1.3l3.3-1.2c4.4-1.6,8.9-2.9,13.4-4.1c3.1-0.8,6.3-1.5,9.5-2.1
			c-3.3-3-7.3-6.7-11.2-9.8c-8.5-6.9-35.1-16.6-35.1-16.6s19.5-12.1,39.3-19s47.5-6.3,47.5-6.3s-4.6-7-5.8-9
			c-3.4-5.8-5.9-12.1-7.3-18.7c-1.2-5.6-1.7-11.3-1.6-16.9c-0.7-0.1-1.4-0.2-2.1-0.3c-2.3-0.3-4.6-0.7-6.9-1.1
			c-4.6-0.8-9.2-1.9-13.8-3.1c-4.6-1.2-9.1-2.7-13.6-4.4c-2.3-0.9-4.5-1.9-6.7-2.9c-1.1-0.5-2.2-1.1-3.3-1.7
			c-0.6-0.3-1.1-0.6-1.6-0.9l-0.8-0.5l-0.9-0.5l-2.9-1.8l-3.1-2c-2-1.4-4-2.7-5.9-4.1c-1.9-1.4-3.7-2.8-5.4-4
			c-1.7-1.2-3.3-2.3-5.1-3.2l-1.3-0.7l-1.3-0.7c-0.9-0.5-1.8-0.9-2.7-1.3c-0.9-0.4-1.9-0.8-2.8-1.2c-0.9-0.4-1.8-0.7-2.8-1l0.1,2.6
			c0.3,5.5,0.4,11,0.5,16.5c0,2.8,0.1,5.5,0.1,8.3l0,4.1l-0.1,4.1c0,1.4-0.1,2.8-0.1,4.2c0,1.4-0.1,2.8-0.2,4.2
			c-0.1,2.8-0.3,5.5-0.6,8.3l-0.4,3l-1-2.8c-1-2.6-1.8-5.3-2.7-7.9c-0.4-1.3-0.8-2.6-1.2-3.9c-1.5,0.7-3,1.3-4.5,2
			c-3,1.4-5.9,2.9-8.7,4.4c-2.8,1.6-5.5,3.3-8,5.1c-2.5,1.8-4.8,3.7-6.7,5.8c-1.9,2-3.3,4.2-4,6.1c-0.1,0.2-0.1,0.5-0.2,0.7
			l-0.3,1.2c-0.2,0.8-0.3,1.4-0.5,2.2c-0.3,1.5-0.6,3-0.8,4.6c-0.5,3.1-0.9,6.4-1.5,10.2c-0.6,3.7-1.7,7.8-3.6,11.6
			c-1.8,3.8-4.1,7.1-6.6,10.1c-1.2,1.5-2.5,2.9-3.8,4.2l-0.5,0.5l-0.2,0.3l-0.3,0.3l-0.9,0.9l-0.5,0.5l-0.6,0.5l-1.2,1
			c-5.9,5.1-12.3,8.8-18.9,11.9c-3.3,1.6-6.6,2.9-10,4.1c-3.4,1.2-6.8,2.3-10.2,3.2c-3.4,0.9-6.9,1.7-10.4,2.3
			c-0.7,0.1-1.5,0.3-2.2,0.4c0.1,0.2,0.3,0.5,0.4,0.7c1.6,2.7,3.3,5.3,5.1,7.8c3.6,5.1,7.6,9.8,12.1,13.7c2.3,2,4.6,3.8,7.1,5.4
			c2.5,1.6,5.1,2.9,7.8,3.8c1.4,0.5,2.7,0.9,4.1,1.2c0.7,0.2,1.4,0.3,2.1,0.4l2.4,0.3c3.3,0.5,6.4,0.9,9.5,1.2
			c1.6,0.1,3.1,0.3,4.7,0.3c1.6,0.1,3.1,0.1,4.7,0.1c1.6,0,3.1-0.1,4.7-0.2c1.6-0.1,3.1-0.3,4.7-0.4c1.6-0.2,3.1-0.4,4.7-0.7
			c1.6-0.3,3.1-0.6,4.7-0.9c1.6-0.3,3.1-0.7,4.7-1l2.4-0.5L106.4,190.2z M107.1,97.8c0.4-3.8,14.3-4.8,18.3-7.2
			c4-2.4-2.2,13.7-6.4,17.8c-4.4,4.4-9.9,8.6-15.5,9.1C103.5,117.5,107.7,106.4,107.1,97.8z"/>
		<path fill="#FFFFFF" d="M325.5,210.8c5.3,7.7,9.8,16.1,13.3,24.9c1.3,3.3,2.5,6.6,3.5,10c3.8-5.7,9.3-12.8,13.4-19
			c7.9-12,15.2-19.4,14.8-24.9c0,0-0.4-1.3-1.1-3.8s-1.6-8.6-1.7-9.9c-0.4-2.7-0.9-5.4-1.2-8.1l-1-8.1l-0.8-8.1l-0.4-4l0-0.3l0-0.1
			l0-0.1c0,0,0,0.2,0,0.1l0,0l-0.1-0.5l-0.1-1c-0.1-0.7-0.2-1.3-0.3-2c-0.4-2.4-0.9-4.9-1.6-7.3c-0.6-2.4-1.4-4.8-2.3-7.2
			c-1.8-4.7-4-9.3-6.6-13.8c-2.6-4.5-5.4-8.8-8.4-13.3c-3-4.5-6.1-9-8.9-14c-0.5-0.8-0.9-1.7-1.3-2.6c-1.2,2.4-2.4,4.9-3.5,7.4
			c-1.5,3.4-2.8,6.8-3.8,10.2c-1,3.4-1.8,6.9-2.2,10.3l-1.9,17.1c0,0-1.5,15.7-1.7,35.6c-0.1,16.2,0.7,25.4,1,28.3
			C323.5,208,324.5,209.4,325.5,210.8z"/>
		<path fill="#FFFFFF" d="M227.4,92.4c1.2,2.7,2.6,5.2,4.2,7.7c1.6,2.5,1.9,2.7,5.5,7c1.7,2.1,25.9,19.1,43.5,39.6
			c13.8,16,24.7,36,29.6,45.8c0.1,0.1,0.2,0.2,0.3,0.3c1.2-3.8,2.7-10.2,3.1-19c0.6-15.2,3-20.4,2.7-29.8
			c-0.3-9.4-2.5-17.6-2.5-17.6c-0.6-2.5-1.4-5.2-2.3-7.8c-0.8-2.6-1.8-5.1-2.8-7.6c-1.1-2.4-2.2-4.8-3.5-6.8c-0.3-0.5-0.7-0.9-1-1.4
			l-0.2-0.3l-0.1-0.1l-0.2-0.2l-0.7-0.8l-0.7-0.8l-0.6-0.6c-0.4-0.4-0.8-0.8-1.2-1.3c-1.8-1.7-3.6-3.1-5.6-4.3
			c-2-1.2-4.2-2.1-6.5-2.8c-2.4-0.7-4.9-1.2-7.7-1.6c-2.8-0.4-5.7-0.7-8.8-1.2c-3.1-0.5-6.3-1.2-9.4-2.2c-3.2-1-6.3-2.3-9.2-3.9
			l-2.2-1.3c-0.7-0.4-1.4-0.9-2.1-1.3l-0.5-0.3l0,0c-0.1,0,0.1,0.1-0.1-0.1l-0.1,0l-0.1-0.1l-0.2-0.2l-0.8-0.7l-1.6-1.4
			c-1.1-0.9-2.2-2-3.4-3c-1.2-1-2.2-2.1-3.3-3.1c-1.1-1-2.1-2.1-3.2-3.2c-1.1-1.1-2.1-2.2-3.1-3.3c-2-2.2-4-4.5-5.9-6.8
			c-0.9-1.1-1.7-2.1-2.5-3.2c-0.2,1.2-0.5,2.5-0.7,3.7c-0.9,5.7-1.1,11.5-0.5,17.3C223.7,81.4,225.1,87.1,227.4,92.4z"/>
		<path fill="#FFFFFF" d="M381.1,200.3C381.1,200.3,381.1,200.3,381.1,200.3C381.1,200.3,381.1,200.3,381.1,200.3z"/>
		<path fill="#FFFFFF" d="M232.7,114.6c-9.9-3.3-19-3.8-35.8,0.6c-21.1,5.5-38.7,14.8-38.7,14.8s9.3,1.7,23.3,10.5
			c7.7,4.8,14.7,10.2,19.3,14c1-0.1,2.1-0.2,3.1-0.3c1.2-0.1,2.3-0.2,3.4-0.2l3.3-0.2l3.7-0.1l3.5,0c4.7,0,9.4,0.3,14.1,0.9
			c18.7,2.2,36.9,8.4,53,18c-2.3-7.4-3.6-15.8-10.8-23.6C255.5,129.5,242.5,117.9,232.7,114.6z"/>
		<path fill="#FFFFFF" d="M167.1,245.4c1.6-1.5,3.3-2.9,5-4.3c-0.2,0-0.4,0.1-0.5,0.1c-7.1,2.8-23.3,9.7-39.9,17.1
			c-5.5,6.1-20.2,23.1-25.2,35.5c-6.2,15.3-14.3,42.7-14.3,42.7l-0.7,3.6c-0.2,1.2-0.4,2.4-0.6,3.6c-0.4,2.4-0.7,4.8-0.9,7.1
			c-0.2,2.3-0.2,4.6-0.1,6.9c0.1,2.3,0.4,4.6,0.8,6.9c0.4,2.4,1,4.8,1.6,7.3l0.5,1.9l0.2,0.8l0.3,0.9l0.6,1.8l0.5,1.5
			c0.8,2.1,1.7,4.3,2.9,6.3c1.1,2,2.5,4,3.9,6.1l4.5,6.3c1.5,2.1,3,4.4,4.5,6.7c0.7,1.2,1.4,2.3,2,3.5l1.9,3.5
			c1.3,2.3,2.6,4.7,3.8,7.2c1.2,2.5,2.4,5.1,3.4,7.7c1,2.6,1.9,5.4,2.5,8.1c0.2,0.7,0.3,1.4,0.5,2.1c1.5-1.9,2.9-4,4.1-6.3
			c0.4-0.8,0.8-1.6,1.2-2.4c0.4-0.8,0.7-1.6,1.1-2.5c0.7-1.7,1.3-3.4,1.8-5.2c0.3-0.9,0.5-1.8,0.8-2.7c0.2-0.9,0.4-1.8,0.6-2.7
			l0.5-2.8l0.4-2.8l0.6-11.9c0,0-1.1-19-0.2-36.6c0.9-17.6,6.2-60.2,6.2-60.2l0,0c0-1.1,0.1-2.2,0.2-3.3c0.8-9.9,3.6-19.6,8-28.4
			C153.9,260,159.9,252.1,167.1,245.4z"/>
		<path fill="#FFFFFF" d="M84.3,238.5c1.3,0.1,2.5,0.3,3.8,0.4c1.3,0.1,2.6,0.3,3.8,0.3c1.3,0.1,2.6,0.2,3.9,0.3l3.9,0.2
			c0,0,25.3-0.3,51.5-2.9c22.1-2.2,41.6-7.9,46.9-9.5c0.3-0.1,0.7-0.2,1-0.3c0.3-0.1,0.5-0.2,0.5-0.2l-0.1,0
			c6.8-2,13.8-3.2,20.9-3.4c10-0.2,20.1,1.8,29.3,5.9c4.6,2.1,9,4.7,13,7.7c4,3.1,7.7,6.7,10.9,10.6c2.6,3.2,4.8,6.6,6.6,10.2
			c0.6,1,1.1,2,1.6,3c3.2,6.4,4.6,12.5,5.4,17.4c0.2,1.2,0.3,2.4,0.5,3.5c0.1,1.1,0.1,2.1,0.2,3.1c0,0.9,0.1,1.8,0.1,2.6
			c0,0.8,0,1.5,0,2.2c-0.1,2.6-0.2,4-0.2,4l0,0.7c0,0.3-0.2,1.3-0.5,2.9c0,0.2-0.1,0.5-0.1,0.8c-0.1,0.3-0.1,0.5-0.2,1
			c-0.2,0.9-0.4,1.8-0.7,2.8c-0.3,1-0.5,2.1-0.9,3.2c-0.4,1-0.8,2-1.2,3.2c-1.8,4.4-4.6,9.4-8.8,14.2c-4.2,4.8-9.7,9.2-16.3,12.7
			c-6.6,3.4-14.2,5.9-22.4,6.8c-1,0.2-2.1,0.1-3.1,0.2c-0.5,0-1,0.1-1.6,0.1l-0.8,0l-1,0c-1.9-0.1-3.6,0-6.1-0.3
			c-1.1-0.1-2.4-0.2-3.5-0.5c-1.1-0.2-2.2-0.5-3.3-0.7c-1.1-0.2-2.2-0.6-3.3-0.9l-1.6-0.5l-0.8-0.3l-0.8-0.3
			c-4.4-1.6-8.5-4-12.5-6.7c-1-0.7-1.9-1.5-2.9-2.3c-0.5-0.4-1-0.8-1.4-1.2l-1.4-1.3l-1.4-1.3c-0.5-0.4-0.9-0.9-1.3-1.4
			c-0.8-0.9-1.7-1.9-2.5-2.9c-3.2-4-5.9-8.5-8-13.5c-2.1-4.9-3.4-10.3-4-15.8c0-1.4,0-0.4,0-0.8l0-0.1l0-0.2l0-0.4l-0.1-0.8
			l-0.1-1.6l-0.1-0.8l0-0.4c0-0.1,0-0.4,0-0.6l0.1-2.4l0.1-2.4l0.1-1.2l0.1-1.1c0.2-1.4,0.4-2.8,0.7-4.2c0.3-1.4,0.7-2.8,1-4.2
			c0.2-0.7,0.4-1.4,0.6-2.1l0.7-2l0.8-2c0.3-0.7,0.5-1.3,0.9-2c0.6-1.3,1.3-2.6,2-3.9c0.7-1.3,1.5-2.5,2.3-3.7
			c0.4-0.6,0.8-1.2,1.2-1.8c-2.1,1.5-4.1,3.2-6,5c-5.6,5.2-10.2,11.4-13.6,18.2c-3.4,6.8-5.5,14.2-6.1,21.6
			c-0.2,1.9-0.2,3.8-0.2,5.6c0,0.9,0,1.9,0.1,2.8l0.1,1.4l0.1,0.7l0,0.1l0,0.4l0.4,3.2c0,0.3,0.1,0.5,0.1,0.7l0.1,0.7l0.2,1.3
			c0.1,0.9,0.4,1.8,0.6,2.8c0.2,0.9,0.4,1.9,0.7,2.8c1,3.7,2.3,7.3,4,10.8c1.6,3.5,3.5,6.9,5.7,10.1c8.6,12.8,21.5,22.8,36.1,28.1
			c7.3,2.6,15,4.3,22.8,4.6c1,0,1.9,0.1,2.9,0.1l2.9,0c1,0,2-0.1,2.9-0.1l1.4-0.1l1.6-0.1c3.9-0.4,7.9-1,11.7-1.9
			c15.5-3.4,30.1-11,42.1-21.5c12-10.5,21.4-24,27-38.9c2.8-7.5,4.6-15.2,5.4-23.1c0.4-3.9,0.5-7.9,0.4-11.9l-0.1-1.5l-0.1-1.5
			l-0.1-1.6l-0.1-1.4c-0.2-1.9-0.4-4-0.7-5.9c-1.2-7.9-3.3-15.7-6.3-23.1c-3-7.4-6.9-14.5-11.5-21.1c-9.3-13.1-21.5-24.1-35.4-32.2
			c-13.9-8.1-29.5-13.2-45.5-15c-4-0.5-8-0.7-12-0.7l-3,0l-2.9,0.1l-3.3,0.2c-1.1,0.1-2.2,0.1-3.2,0.2c-2,0.2-4,0.3-6,0.6l-3.1,0.4
			l-3,0.4c-4.1,0.6-8.1,1.4-12,2.3c-3.9,1-7.9,2.1-11.7,3.4l-2.9,1l-2.8,1.1c-1.9,0.7-3.7,1.5-5.6,2.3c-7.3,3.3-12.2,5.6-18.5,10.4
			l-8.2,5.6c-1.8,1-3.7,2-5.5,3c-3.7,1.9-7.4,3.8-11.2,5.5c-7.5,3.5-15.2,6.6-23,9.3c-3.9,1.4-7.8,2.6-11.8,3.8c-2,0.6-4,1.1-6,1.7
			c-2,0.6-4,1-6,1.5c-2,0.5-4,0.9-6,1.4c-2,0.4-4,0.8-6.1,1.2l-1,0.2c0.5,0.4,1.1,0.7,1.7,1.1c1,0.6,2,1.2,3,1.7
			c1.1,0.5,2.1,1,3.2,1.5c1.1,0.5,2.2,0.9,3.4,1.3c1.2,0.4,2.3,0.8,3.5,1.1c1.2,0.4,2.4,0.6,3.6,0.9c1.2,0.3,2.4,0.5,3.7,0.8
			c1.2,0.2,2.5,0.4,3.7,0.6C81.8,238.1,83,238.4,84.3,238.5z"/>
		<path fill="#FFFFFF" d="M384.2,202.2c-0.7,0.5-1.3,1.1-1.8,1.7c-0.3,0.3-0.6,0.6-0.8,0.9l-9.2,8.9c0,0-4,4.1-14.3,19.8
			c-6.7,10.2-10.7,19.4-12.7,24.7c0.3,1.6,0.6,3.1,0.8,4.7c0.3,2.4,0.6,4.6,0.8,7.1l0.1,1.8l0.1,1.6l0.1,1.8l0.1,1.7
			c0.1,4.7,0,9.5-0.5,14.2c-0.9,9.4-3.1,18.8-6.4,27.6c-6.6,17.8-17.7,33.8-32,46.2c-13.3,11.7-29.4,20.3-46.6,24.8
			c13.1,2.1,34.2,4.4,51,1.2c26.5-5.1,39.4-19.3,46.2-25.9c3.4-3.3,6.7-6.6,9.7-10c3.1-3.4,5.9-6.8,8.4-10.4
			c2.6-3.6,4.8-7.4,6.8-11.4c2-4,3.7-8.2,5.2-12.6c1.5-4.4,2.7-9,3.8-13.6c1.1-4.6,2-9.4,2.8-14.1c0.8-4.7,1.5-9.6,2-14.4
			c0.5-4.9,0.9-9.7,1.4-14.7l0.8-7.4l0.9-7.4l0.4-3.7l0.5-3.7l1-7.4l1.2-7.3c0.4-2.4,0.8-4.9,1.3-7.3l1.4-7.3
			c0.5-2.4,0.9-4.9,1.5-7.3c1.1-4.8,2.1-9.6,3.4-14.4l0.1-0.5c-4,1.9-8,3.3-11.9,4.6c-4.1,1.4-8,2.6-11.3,4.3
			c-0.8,0.4-1.6,0.8-2.3,1.3C385.6,201.2,384.9,201.7,384.2,202.2z"/>
		<path fill="#FFFFFF" d="M266.7,400.1c-26.3-1.6-56.7-9.8-56.7-9.8l0,0c-2.8-0.7-5.6-1.6-8.4-2.6c-18.1-6.6-34.3-18.9-45.2-35
			c-2.7-4-5.1-8.3-7.1-12.7c-1.2-2.6-2.2-5.2-3.2-7.9c-0.9,6-2.6,18.5-3.2,28.8c-0.8,14.7,0.5,24.7,0.5,24.7
			c5.3,9.9,13.5,28.8,29.5,40.1c4.8,3.4,10.1,5.8,15.4,8.2c5.3,2.4,10.7,4.5,16.3,6.1c5.6,1.7,11.3,3,17,3.9c5.8,1,11.6,1.6,17.5,2
			c6,0.4,12,0.7,17.9,0.9c6,0.2,11.9,0.3,17.9,0.3c6,0,11.9-0.2,17.8-0.6c5.9-0.4,11.8-0.9,17.7-1.7c0,0,18.9-3.1,32.3-15.2
			s25.5-19.6,25.5-19.6c15.7-9.2,20.5-10.2,22-10c-1.7-0.9-6.9-3.4-16.5-4.2c-10.7-1-27.2,0.2-43.4,2.5
			C296,403.2,293,401.8,266.7,400.1z"/>
		<path fill="#FFFFFF" d="M111.5,267.6c-10.9,5.2-20.3,10-25.2,13.1c-14.8,9.7-19.7,17.6-19.7,17.6l-1.7,2.8l-1.8,3.6
			c-0.4,0.8-0.7,1.5-1.1,2.3c-0.7,1.5-1.4,3-1.9,4.6c-0.3,0.8-0.6,1.5-0.9,2.3c-0.3,0.8-0.6,1.5-0.8,2.3c-0.3,0.8-0.5,1.6-0.8,2.3
			c-0.2,0.8-0.5,1.6-0.7,2.4c-0.2,0.8-0.4,1.6-0.6,2.4c-0.2,0.8-0.4,1.6-0.6,2.4c-0.2,0.8-0.4,1.6-0.5,2.4l-0.5,2.4
			c-0.2,0.8-0.3,1.6-0.4,2.4c-0.1,0.8-0.3,1.6-0.4,2.4c-0.2,1.3-0.3,2.6-0.5,3.9c2-1,4-2,6-2.9c1.8-0.8,3.6-1.7,5.4-2.4l2.8-1.2
			c0.9-0.4,1.9-0.7,2.8-1.1c0.9-0.4,1.9-0.7,2.9-1c1-0.3,1.9-0.7,2.9-1c1-0.3,2-0.6,3-0.9l5.2-1.4c0,0,5.6-18.1,11.1-30.3
			C100,287.4,108.3,273.2,111.5,267.6z"/>
		<path fill="#FFFFFF" d="M64.1,283.9c0,0,5.7-2.4,15.7-7.3c10-4.9,16.5-8.5,29.1-15.4c10.4-5.6,25.8-13.9,31.1-16.8
			c-1.3,0.1-2.6,0.1-3.9,0.2c-18.1,0.8-17.9,0.8-29.8,1.3c0,0-13.6,1.1-23.6,3.3s-15.3,5.3-19.1,7.1c-3.8,1.8-7.5,3.7-10.9,5.9
			c-1.7,1.1-3.2,2.3-4.6,3.5c-1.4,1.2-2.6,2.5-3.4,3.8c-0.2,0.3-0.4,0.6-0.5,0.9l-0.2,0.5l-0.4,0.7c-0.5,1-1,2-1.4,2.9
			c-0.9,1.9-1.8,3.8-2.6,5.7l-2.6,6c-0.7,1.6-1.6,3.4-2.6,5.1l8-1.3l3.7-0.7c1.3-0.2,2.5-0.5,3.7-0.8c1.2-0.3,2.4-0.7,3.7-1
			c1.2-0.3,2.4-0.7,3.6-1.1c1.2-0.4,2.4-0.8,3.6-1.3C61.8,284.9,62.9,284.4,64.1,283.9z"/>
	</g>
</g>
<g id="Layer_1_copy_6" display="none">
	<g display="inline">
		<path fill="#FFFFFF" d="M417.2,173.8c-0.8,0.6-1.5,1.2-2.3,1.7c-0.8,0.6-1.6,1.1-2.4,1.6c-0.8,0.5-1.6,1-2.5,1.5
			c-0.8,0.5-1.7,0.9-2.6,1.4c-3.5,1.7-7.3,3.1-11.3,4.5c-4,1.4-8.3,2.9-12.6,5.2c-1.1,0.6-2.2,1.2-3.2,1.9c-0.5,0.3-1,0.7-1.5,1
			c-0.2-0.8-0.4-1.7-0.6-2.5c-0.3-1.3-0.6-2.5-0.8-3.8c-0.4-2.6-1-5.2-1.3-7.8l-1.2-7.9l-1-7.9l-0.5-4l-0.4-4.1
			c-0.4-2.9-0.8-5.7-1.5-8.5c-0.6-2.8-1.4-5.5-2.3-8.2c-1.8-5.4-4.1-10.6-6.7-15.5c-2.6-5-5.5-9.7-8.3-14.3c-2.8-4.6-5.6-9-7.8-13.5
			c-2.2-4.4-3.8-8.8-4.1-13L341.2,63l-10.4,15.9l0,0c-0.6,1-1.1,1.8-1.6,2.7l-1.4,2.7c-0.9,1.8-1.9,3.5-2.7,5.3
			c-1.8,3.6-3.4,7.2-4.9,11c-0.5,1.4-1.1,2.7-1.6,4.1c-1-2.2-2.1-4.4-3.4-6.7c-0.4-0.7-0.9-1.4-1.4-2.2l-0.4-0.5l-0.4-0.5l-0.7-0.8
			l-0.7-0.8l-0.9-1c-0.6-0.6-1.1-1.3-1.7-1.8c-2.3-2.3-4.9-4.5-7.8-6.2c-2.9-1.8-6-3.1-9.1-4.1c-3.1-1-6.1-1.6-9-2.3
			c-2.9-0.6-5.5-1.3-8-2.1c-5-1.6-9.2-3.8-13-6.7l-1.4-1.1c-0.5-0.4-0.9-0.8-1.4-1.2l-0.3-0.3l0,0c0,0,0,0,0,0l-0.1-0.1l-0.2-0.2
			l-0.9-0.6l-1.7-1.3c-1.2-0.9-2.2-1.6-3.2-2.4c-1-0.8-2.1-1.6-3.1-2.5c-1.1-0.8-2.1-1.7-3.1-2.6c-1-0.9-2-1.8-3-2.7
			c-2-1.8-4-3.7-5.9-5.7c-1.9-2-3.7-3.9-5.5-6c-0.9-1-1.7-2.1-2.6-3.1l-1.2-1.6l-1.1-1.5l-7.4-10l-4.1,11l0,0
			c-0.2,0.6-0.4,0.9-0.5,1.4l-0.4,1.2c-0.3,0.8-0.5,1.6-0.7,2.5c-0.4,1.6-0.8,3.3-1.1,4.9c-0.1,0.3-0.1,0.5-0.1,0.8
			c-0.4-0.1-0.8-0.2-1.3-0.2c-2.2-0.4-4.3-0.8-6.4-1.3c-4.3-1-8.5-2.1-12.6-3.4c-4.1-1.3-8.2-2.8-12.1-4.5c-1.9-0.8-3.8-1.8-5.7-2.7
			c-0.9-0.5-1.8-1-2.7-1.5c-0.4-0.3-0.9-0.5-1.3-0.8l-0.6-0.4l-0.3-0.2l-0.1-0.1l-0.2-0.1l-2.8-2l-2.5-1.9c-1.7-1.3-3.3-2.6-5-4.1
			c-1.7-1.4-3.4-2.9-5.3-4.5c-1.9-1.5-3.9-3.1-6.1-4.5l-1.6-1.1l-1.7-1c-1.1-0.7-2.2-1.3-3.3-1.8c-1.1-0.6-2.2-1.1-3.3-1.7
			c-1.1-0.5-2.2-1.1-3.3-1.5c-1.1-0.5-2.2-1-3.3-1.4l-3.3-1.3c-2.2-0.9-4.4-1.6-6.6-2.4l0,0L106.8,0l2.8,13.7
			c0.4,1.9,0.8,3.9,1.3,5.8c-3.2-0.9-6.3-2-9.4-3c-8.3-2.8-16.1-5.5-25-5.5H66.3l5.1,9c2.2,3.9,4.2,7.4,6,10.4
			c11,19.1,13.2,22.8,14.1,38.4c-1.9,1.4-3.8,2.8-5.6,4.5c-2.9,2.7-5.7,6.1-7.5,10.5c-0.2,0.5-0.4,1.1-0.6,1.7l-0.4,1.3
			c-0.3,0.8-0.6,1.8-0.8,2.7c-0.5,1.8-1,3.6-1.3,5.3c-0.8,3.5-1.3,7-2,9.9c-0.7,3-1.5,5.4-2.7,7.7c-1.2,2.3-2.8,4.6-4.8,6.8
			c-1,1.1-2,2.2-3.1,3.3l-0.4,0.4L62,123l-0.1,0l-0.1,0.1l-0.9,0.9l-0.4,0.4l-0.4,0.3l-0.7,0.7c-2.2,1.9-4.7,3.6-7.2,5.3
			c-2.6,1.7-5.3,3.2-8.1,4.6c-2.8,1.4-5.7,2.8-8.7,4c-3,1.2-6,2.4-9,3.5c-3.1,1.1-6.1,2.1-9.2,3.1c-3.1,1-6.2,1.9-9.3,2.7l0,0
			L0,149.9l3.2,7.1c0.4,1,0.8,1.7,1.2,2.5c0.4,0.8,0.8,1.6,1.2,2.3c0.8,1.5,1.7,3,2.6,4.5c1.8,3,3.7,5.8,5.8,8.6
			c4.2,5.5,8.9,10.8,14.4,15.3c5.5,4.5,11.8,8.4,18.9,10.5c1.8,0.5,3.6,1,5.4,1.3c0.9,0.2,1.8,0.3,2.8,0.4l2.5,0.3
			c3.3,0.3,6.7,0.6,10.1,0.8c1.7,0,3.4,0.1,5.2,0.1c1.7,0,3.5-0.1,5.2-0.2c1.7-0.1,3.4-0.3,5.1-0.5c1.7-0.2,3.4-0.5,5.1-0.8
			c1.4-0.3,2.8-0.5,4.1-0.8c-0.5,0.2-1,0.5-1.6,0.7c-1.8,0.8-3.6,1.6-5.4,2.3c-1.8,0.8-3.6,1.5-5.4,2.2c-1.8,0.7-3.6,1.4-5.5,2.1
			c-1.8,0.7-3.7,1.3-5.5,1.9c-1.8,0.6-3.7,1.2-5.5,1.8c-1.9,0.6-3.7,1.2-5.6,1.7c-1.9,0.5-3.7,1.1-5.6,1.6c-1.9,0.5-3.8,1-5.7,1.4
			c-1.9,0.5-3.8,0.9-5.7,1.3l-7.7,1.8l2.9,6.7c0.3,0.6,0.3,0.7,0.5,1l0.4,0.7c0.3,0.4,0.5,0.8,0.8,1.2c0.5,0.7,1.1,1.4,1.7,2
			c1.1,1.2,2.3,2.3,3.6,3.3c2.5,1.9,5.1,3.4,7.8,4.7c1.3,0.6,2.7,1.2,4.1,1.6c1.4,0.5,2.7,0.9,4.1,1.3c1.4,0.4,2.7,0.7,4.1,1
			c1.4,0.2,2.7,0.5,4.1,0.7l2.8,0.3c-3.5,0.9-7,1.9-10.5,3c-4.3,1.4-8.6,3.2-12.9,5.4c-2.1,1.1-4.2,2.4-6.3,3.9
			c-2,1.5-4.1,3.3-5.9,5.5c-0.4,0.6-0.9,1.2-1.3,1.8l-0.3,0.5l-0.3,0.4l-0.4,0.7c-0.6,1-1.1,1.8-1.7,2.9c-1.1,2-2.2,4-3.3,6.1
			c-1,2-2,4.1-2.9,6c-0.9,1.9-1.7,3.6-2.7,5.1c-0.9,1.6-2,3-3.2,4.6c-1.2,1.5-2.5,3.1-3.9,4.7l-7.9,10.5l5.8,0.2l4.6-0.1
			c1.9-0.1,2.3,0,3.9,0c0.7,0,1.7,0,2.5,0c1.4,0,2.8,0.1,4.2,0c1.4-0.1,2.9-0.1,4.3-0.3c1.4-0.2,2.9-0.3,4.3-0.5
			c1.4-0.2,2.8-0.5,4.2-0.7c1.4-0.3,2.8-0.6,4.2-1c1.4-0.4,2.8-0.7,4.2-1.2c0.4-0.1,0.7-0.2,1.1-0.3c-0.8,1.1-1.6,2.2-2.4,3.3
			c-1.1,1.6-2.1,3.3-3.1,5c-1,1.7-1.9,3.5-2.7,5.3c-0.8,1.8-1.6,3.6-2.3,5.5c-0.7,1.8-1.3,3.7-1.9,5.6c-0.5,1.9-1,3.8-1.5,5.7
			c-0.4,1.9-0.8,3.8-1.1,5.8c-0.3,1.9-0.5,3.9-0.7,5.8c-0.1,1-0.2,1.9-0.2,2.9l-0.2,2.9c-0.1,1.9,0,3.9-0.1,5.8l-0.2,16.1l14.2-8.4
			l4.7-2.8l4.8-2.8c1.6-0.9,3.2-1.9,4.8-2.8l4.8-2.7c0.8-0.4,1.6-0.9,2.4-1.3l2.4-1.3l2.4-1.3c0.5-0.3,4.3-1.9,4.8-2.1
			c0,0-1.7,5.1-1.8,9.6c-0.1,4.5,0.5,9.1,1.3,11.8c0.8,2.6,1.6,5.2,2.5,7.6l1.3,3.8l0.6,1.8l0.8,2.1c1.1,2.7,2.4,5.2,3.9,7.6
			c1.5,2.4,3.1,4.7,4.7,6.8c1.6,2.1,3.2,4.1,4.7,6.1c1.5,2,2.9,4,4.2,6.1c0.6,1,1.3,2.1,1.9,3.1l0.9,1.6l0.9,1.7
			c1.2,2.2,2.2,4.4,3,6.7c0.8,2.3,1.4,4.5,1.8,6.9c0.4,2.3,0.7,4.6,0.7,7c0.1,2.3,0.1,4.6,0.1,7l-0.1,3.5l-0.2,3.5L110,462l10.5-4.7
			l0.4-0.2l0.3-0.1l0.5-0.3c0.3-0.2,0.6-0.3,0.9-0.5c0.6-0.3,1.1-0.7,1.7-1c1.1-0.7,2.1-1.4,3-2.2c1-0.8,1.9-1.6,2.7-2.4
			c0.9-0.8,1.7-1.7,2.5-2.6c1.6-1.8,3-3.7,4.3-5.7c0.6-1,1.2-2,1.8-3c0.6-1,1.1-2.1,1.6-3.1c0.5-1,0.9-2.1,1.4-3.2
			c0.4-1.1,0.8-2.1,1.2-3.2c0.7-2.2,1.3-4.3,1.8-6.5c0.2-1,1.5-7.3,0.7-15.9c6.4,6.8,10.5,16.5,23.7,26.2c5,3.7,9.3,7.4,15.1,9.8
			c5.8,2.5,11.7,4.6,17.7,6.3c6,1.7,12.1,3,18.3,3.9c6.1,0.9,12.3,1.5,18.5,1.9c6,0.3,12.1,0.6,18.2,0.8c6.1,0.2,12.2,0.2,18.3,0.1
			c6.1-0.1,12.2-0.3,18.3-0.7c6.1-0.4,12.2-1,18.3-1.9c6.1-0.9,13.5-4.2,19.2-6.6c5.5-2.3,11.4-5.5,19.9-12.5
			c11.4-9.4,28.8-22.9,28.8-22.9c13.3-7.7,30.5-10.2,30.5-10.2s-27.8-14.7-39.5-14.4c-12.3,0.3-25.8,2-25.8,2s11.9-5.4,19.8-10.7
			c7.9-5.3,10.3-7.4,16.4-12.6c4-3.4,7.4-7.5,10.2-12.1c2.8-4.6,5.1-9.5,6.9-14.5c1.8-5,3.2-10.1,4.2-15.1c1-5,1.7-10.1,2.3-15.1
			c0.6-5,1.1-9.9,1.5-14.9l1.2-14.8c0.4-4.9,0.8-9.8,1.4-14.6l0.8-7.2l1-7.2l0.5-3.6l0.6-3.6l1.2-7.1c1-4.7,1.9-9.5,2.9-14.2
			l1.6-7.1c0.5-2.4,1.1-4.7,1.7-7.1c1.2-4.7,2.3-9.4,3.6-14.1l3.8-14.1l4.4-16.4L417.2,173.8z M381.1,200.3
			C381.1,200.3,381.1,200.3,381.1,200.3C381.1,200.3,381.1,200.3,381.1,200.3z M321.5,178.4c0.2-20,1.7-35.6,1.7-35.6l1.9-17.1
			c0.4-3.4,1.2-6.8,2.2-10.3c1-3.4,2.3-6.9,3.8-10.2c1.1-2.5,2.2-5,3.5-7.4c0.4,0.9,0.9,1.7,1.3,2.6c2.8,5.1,5.9,9.6,8.9,14
			c3,4.4,5.9,8.8,8.4,13.3c2.6,4.5,4.8,9,6.6,13.8c0.9,2.4,1.7,4.8,2.3,7.2c0.7,2.4,1.2,4.9,1.6,7.3c0.1,0.6,0.2,1.3,0.3,2l0.1,1
			l0.1,0.5l0,0c0,0.1,0-0.1,0-0.1l0,0.1l0,0.1l0,0.3l0.4,4l0.8,8.1l1,8.1c0.3,2.7,0.8,5.4,1.2,8.1c0.2,1.4,1,7.4,1.7,9.9
			s1.1,3.8,1.1,3.8c0.4,5.5-6.9,12.9-14.8,24.9c-4.1,6.2-9.6,13.3-13.4,19c-1-3.4-2.2-6.7-3.5-10c-3.4-8.8-7.9-17.1-13.3-24.9
			c-1-1.4-2-2.8-3-4.1C322.2,203.8,321.4,194.6,321.5,178.4z M227.7,41.9L227.7,41.9L227.7,41.9L227.7,41.9z M223.6,58.4
			c0.2-1.3,0.4-2.5,0.7-3.7c0.8,1.1,1.7,2.2,2.5,3.2c1.9,2.3,3.8,4.6,5.9,6.8c1,1.1,2,2.2,3.1,3.3c1,1.1,2.1,2.2,3.2,3.2
			c1.1,1.1,2.1,2.1,3.3,3.1c1.1,1,2.3,2.1,3.4,3l1.6,1.4l0.8,0.7l0.2,0.2l0.1,0.1l0.1,0c0.2,0.2,0.1,0.1,0.1,0.1l0,0l0.5,0.3
			c0.7,0.4,1.4,0.9,2.1,1.3l2.2,1.3c2.9,1.6,6,2.9,9.2,3.9c3.2,1,6.4,1.7,9.4,2.2c3.1,0.5,6,0.8,8.8,1.2c2.8,0.4,5.4,0.9,7.7,1.6
			c2.4,0.7,4.5,1.6,6.5,2.8c2,1.2,3.9,2.6,5.6,4.3c0.5,0.4,0.9,0.8,1.2,1.3l0.6,0.6l0.7,0.8l0.7,0.8l0.2,0.2l0.1,0.1l0.2,0.3
			c0.3,0.4,0.7,0.9,1,1.4c1.3,2,2.4,4.3,3.5,6.8c1,2.4,2,5,2.8,7.6c0.8,2.6,1.6,5.3,2.3,7.8c0,0,2.1,8.2,2.5,17.6
			c0.3,9.4-2.1,14.7-2.7,29.8c-0.4,8.8-1.9,15.2-3.1,19c-0.1-0.1-0.2-0.2-0.3-0.3c-4.9-9.8-15.8-29.8-29.6-45.8
			c-17.6-20.5-41.8-37.5-43.5-39.6c-3.6-4.3-3.9-4.6-5.5-7c-1.6-2.5-3-5-4.2-7.7c-2.4-5.3-3.8-11-4.4-16.7
			C222.4,69.9,222.7,64.1,223.6,58.4z M284.7,172.6c-16.1-9.7-34.3-15.9-53-18c-4.7-0.5-9.4-0.8-14.1-0.9l-3.5,0l-3.7,0.1l-3.3,0.2
			c-1.1,0.1-2.1,0.1-3.4,0.2c-1,0.1-2,0.2-3.1,0.3c-4.7-3.8-11.6-9.2-19.3-14c-14-8.8-23.3-10.5-23.3-10.5s17.6-9.2,38.7-14.8
			c16.8-4.4,26-3.9,35.8-0.6s22.9,14.9,41.2,34.4C281.1,156.8,282.3,165.2,284.7,172.6z M88,24.7c3.1,0.9,6.3,1.9,9.8,3.1
			c5.1,1.7,10.4,3.5,16.4,4.9c0.4,1.6,0.8,3.2,1.2,4.9c0.7,2.6,1.3,5.3,2.1,7.9c0.7,2.6,1.4,5.3,2.1,7.9l0.6,2.2
			c-0.2,0.1-0.4,0.1-0.7,0.2c-1.7,0.5-3.4,1-5,1.6c-3.3,1.2-6.6,2.4-9.9,3.9c-0.6,0.3-1.1,0.5-1.7,0.8C101.5,48.2,98,42,88,24.7z
			 M92.2,193.1c-1.6,0.2-3.1,0.5-4.7,0.7c-1.6,0.1-3.1,0.3-4.7,0.4c-1.6,0-3.1,0.2-4.7,0.2c-1.6,0-3.1,0-4.7-0.1
			c-1.6,0-3.1-0.2-4.7-0.3c-3.2-0.3-6.3-0.7-9.5-1.2l-2.4-0.3c-0.7-0.1-1.4-0.2-2.1-0.4c-1.4-0.3-2.8-0.7-4.1-1.2
			c-2.7-1-5.3-2.3-7.8-3.8c-2.5-1.6-4.9-3.4-7.1-5.4c-4.5-4-8.5-8.7-12.1-13.7c-1.8-2.5-3.5-5.1-5.1-7.8c-0.1-0.2-0.3-0.5-0.4-0.7
			c0.7-0.1,1.5-0.2,2.2-0.4c3.5-0.6,6.9-1.4,10.4-2.3c3.4-0.9,6.8-1.9,10.2-3.2c3.4-1.2,6.7-2.5,10-4.1c6.6-3.1,13-6.8,18.9-11.9
			l1.2-1l0.6-0.5l0.5-0.5l0.9-0.9l0.3-0.3l0.2-0.3l0.5-0.5c1.3-1.3,2.5-2.8,3.8-4.2c2.4-3,4.8-6.3,6.6-10.1
			c1.8-3.8,2.9-7.9,3.6-11.6c0.6-3.7,1-7,1.5-10.2c0.2-1.6,0.5-3.1,0.8-4.6c0.2-0.8,0.3-1.4,0.5-2.2l0.3-1.2
			c0.1-0.2,0.1-0.5,0.2-0.7c0.6-1.9,2.1-4.1,4-6.1c1.9-2.1,4.2-4,6.7-5.8c2.5-1.8,5.2-3.5,8-5.1c2.8-1.6,5.7-3,8.7-4.4
			c1.5-0.7,3-1.4,4.5-2c0.4,1.3,0.8,2.6,1.2,3.9c0.8,2.6,1.7,5.3,2.7,7.9l1,2.8l0.4-3c0.3-2.8,0.4-5.5,0.6-8.3
			c0.1-1.4,0.1-2.8,0.2-4.2c0-1.4,0.1-2.8,0.1-4.2l0.1-4.1l0-4.1c0-2.8-0.1-5.5-0.1-8.3c-0.1-5.5-0.3-11-0.5-16.5l-0.1-2.6
			c1,0.3,1.9,0.7,2.8,1c1,0.4,1.9,0.8,2.8,1.2c0.9,0.4,1.9,0.8,2.7,1.3l1.3,0.7l1.3,0.7c1.7,0.9,3.3,2,5.1,3.2
			c1.7,1.2,3.5,2.6,5.4,4c1.9,1.4,3.8,2.8,5.9,4.1l3.1,2l2.9,1.8l0.9,0.5l0.8,0.5c0.5,0.3,1.1,0.6,1.6,0.9c1.1,0.6,2.2,1.2,3.3,1.7
			c2.2,1.1,4.5,2,6.7,2.9c4.5,1.8,9.1,3.2,13.6,4.4c4.6,1.2,9.2,2.2,13.8,3.1c2.3,0.4,4.6,0.8,6.9,1.1c0.7,0.1,1.4,0.2,2.1,0.3
			c-0.1,5.7,0.4,11.4,1.6,16.9c1.4,6.6,3.9,13,7.3,18.7c1.2,2,5.8,9,5.8,9s-27.8-0.7-47.5,6.3s-39.3,19-39.3,19s26.6,9.8,35.1,16.6
			c3.9,3.1,7.9,6.8,11.2,9.8c-3.2,0.6-6.3,1.3-9.5,2.1c-4.5,1.2-9,2.5-13.4,4.1l-3.3,1.2l-3.2,1.3c-2.2,0.9-4.3,1.9-6.4,2.9
			c-8.3,4-16.3,9-23.6,14.8l-0.8,0.5l-1.2,0.8l-1.7,1.1c-2.4,0.7-4.7,1.5-7.1,2.1l-4.7,1.3c-1.6,0.4-3.1,0.8-4.7,1.2l-2.4,0.6
			l-2.4,0.5c-1.6,0.3-3.1,0.7-4.7,1C95.4,192.6,93.8,192.9,92.2,193.1z M69.5,235.6c-1.2-0.3-2.3-0.7-3.5-1.1
			c-1.1-0.4-2.3-0.8-3.4-1.3c-1.1-0.4-2.2-0.9-3.2-1.5c-1-0.5-2.1-1.1-3-1.7c-0.6-0.4-1.1-0.7-1.7-1.1l1-0.2c2-0.4,4-0.8,6.1-1.2
			c2-0.4,4-0.9,6-1.4c2-0.5,4-1,6-1.5c2-0.5,4-1.1,6-1.7c4-1.2,7.9-2.4,11.8-3.8c7.8-2.7,15.5-5.8,23-9.3c3.8-1.7,7.5-3.6,11.2-5.5
			c1.8-1,3.7-2,5.5-3l8.2-5.6c6.4-4.8,11.2-7.1,18.5-10.4c1.9-0.8,3.7-1.6,5.6-2.3l2.8-1.1l2.9-1c3.8-1.3,7.7-2.4,11.7-3.4
			c4-0.9,8-1.7,12-2.3l3-0.4l3.1-0.4c2.1-0.3,4-0.4,6-0.6c1-0.1,2.1-0.2,3.2-0.2l3.3-0.2l2.9-0.1l3,0c4,0,8,0.3,12,0.7
			c16,1.7,31.5,6.9,45.5,15c13.9,8.1,26.2,19.1,35.4,32.2c4.6,6.6,8.5,13.6,11.5,21.1c3,7.4,5.1,15.2,6.3,23.1c0.3,2,0.5,4,0.7,5.9
			l0.1,1.4l0.1,1.6l0.1,1.5l0.1,1.5c0.1,4,0,7.9-0.4,11.9c-0.8,7.9-2.6,15.7-5.4,23.1c-5.6,14.9-15,28.4-27,38.9
			c-12,10.5-26.6,18-42.1,21.5c-3.9,0.9-7.9,1.5-11.7,1.9l-1.6,0.1l-1.4,0.1c-1,0-2,0.1-2.9,0.1l-2.9,0c-1,0-1.9-0.1-2.9-0.1
			c-7.8-0.4-15.5-2-22.8-4.6c-14.6-5.4-27.5-15.3-36.1-28.1c-2.2-3.2-4-6.6-5.7-10.1c-1.6-3.5-3-7.1-4-10.8
			c-0.3-0.9-0.5-1.9-0.7-2.8c-0.2-0.9-0.5-1.9-0.6-2.8l-0.2-1.3l-0.1-0.7c0-0.2-0.1-0.4-0.1-0.7l-0.4-3.2l0-0.4l0-0.1l-0.1-0.7
			l-0.1-1.4c-0.1-0.9-0.1-1.9-0.1-2.8c0-1.9,0.1-3.8,0.2-5.6c0.6-7.5,2.7-14.9,6.1-21.6c3.4-6.8,8.1-13,13.6-18.2
			c1.9-1.8,3.9-3.4,6-5c-0.4,0.6-0.8,1.2-1.2,1.8c-0.8,1.2-1.6,2.4-2.3,3.7c-0.7,1.3-1.3,2.6-2,3.9c-0.3,0.6-0.6,1.3-0.9,2l-0.8,2
			l-0.7,2c-0.2,0.7-0.4,1.4-0.6,2.1c-0.4,1.4-0.8,2.8-1,4.2c-0.2,1.4-0.5,2.8-0.7,4.2l-0.1,1.1l-0.1,1.2l-0.1,2.4l-0.1,2.4
			c0,0.2,0,0.4,0,0.6l0,0.4l0.1,0.8l0.1,1.6l0.1,0.8l0,0.4l0,0.2l0,0.1c0,0.3,0-0.6,0,0.8c0.7,5.5,1.9,10.8,4,15.8
			c2.1,4.9,4.8,9.5,8,13.5c0.8,1,1.7,1.9,2.5,2.9c0.4,0.5,0.8,0.9,1.3,1.4l1.4,1.3l1.4,1.3c0.4,0.4,0.9,0.8,1.4,1.2
			c1,0.8,1.9,1.5,2.9,2.3c4,2.8,8.1,5.1,12.5,6.7l0.8,0.3l0.8,0.3l1.6,0.5c1.1,0.3,2.2,0.7,3.3,0.9c1.1,0.2,2.2,0.5,3.3,0.7
			c1.1,0.2,2.3,0.3,3.5,0.5c2.5,0.4,4.1,0.3,6.1,0.3l1,0l0.8,0c0.5,0,1.1-0.1,1.6-0.1c1-0.1,2.1-0.1,3.1-0.2
			c8.2-1,15.8-3.4,22.4-6.8c6.6-3.5,12.1-7.9,16.3-12.7c4.3-4.7,7-9.8,8.8-14.2c0.4-1.1,0.8-2.2,1.2-3.2c0.3-1,0.6-2.2,0.9-3.2
			c0.2-1,0.5-1.9,0.7-2.8c0.1-0.5,0.1-0.7,0.2-1c0-0.3,0.1-0.5,0.1-0.8c0.3-1.7,0.5-2.7,0.5-2.9l0-0.7c0,0,0.1-1.4,0.2-4
			c0-0.7,0.1-1.4,0-2.2c0-0.8-0.1-1.7-0.1-2.6c-0.1-1-0.1-2-0.2-3.1c-0.1-1.1-0.3-2.3-0.5-3.5c-0.8-4.9-2.2-11-5.4-17.4
			c-0.5-1-1-2-1.6-3c-1.9-3.6-4.1-7.1-6.6-10.2c-3.2-4-6.8-7.6-10.9-10.6c-4-3.1-8.4-5.7-13-7.7c-9.2-4.1-19.3-6.1-29.3-5.9
			c-7.1,0.2-14.2,1.3-20.9,3.4l0.1,0c0,0-0.2,0.1-0.5,0.2c-0.3,0.1-0.7,0.2-1,0.3c-5.4,1.7-24.8,7.3-46.9,9.5
			c-26.1,2.6-51.5,2.9-51.5,2.9l-3.9-0.2c-1.3-0.1-2.6-0.2-3.9-0.3c-1.3-0.1-2.6-0.2-3.8-0.3c-1.3-0.1-2.5-0.3-3.8-0.4
			c-1.3-0.1-2.5-0.4-3.8-0.5c-1.3-0.2-2.5-0.4-3.7-0.6c-1.2-0.3-2.5-0.5-3.7-0.8C71.9,236.2,70.7,236,69.5,235.6z M49.7,288.6
			c-1.2,0.3-2.5,0.6-3.7,0.8l-3.7,0.7l-8,1.3c1-1.8,1.9-3.5,2.6-5.1l2.6-6c0.8-1.9,1.7-3.9,2.6-5.7c0.4-0.9,0.9-2,1.4-2.9l0.4-0.7
			l0.2-0.5c0.1-0.3,0.3-0.6,0.5-0.9c0.8-1.2,2-2.5,3.4-3.8c1.4-1.2,3-2.4,4.6-3.5c3.3-2.2,7.1-4.1,10.9-5.9
			c3.8-1.8,9.1-4.8,19.1-7.1s23.6-3.3,23.6-3.3c11.9-0.6,11.7-0.6,29.8-1.3c1.3-0.1,2.6-0.1,3.9-0.2c-5.3,2.8-20.7,11.2-31.1,16.8
			c-12.7,6.8-19.1,10.5-29.1,15.4c-10,4.9-15.7,7.3-15.7,7.3c-1.2,0.5-2.3,1-3.5,1.4c-1.2,0.4-2.4,0.9-3.6,1.3
			c-1.2,0.4-2.4,0.8-3.6,1.1C52.2,288,51,288.3,49.7,288.6z M84.5,327.3l-5.2,1.4c-1,0.3-2,0.6-3,0.9c-1,0.3-1.9,0.7-2.9,1
			c-1,0.3-1.9,0.7-2.9,1c-0.9,0.4-1.9,0.7-2.8,1.1l-2.8,1.2c-1.8,0.8-3.6,1.6-5.4,2.4c-2,0.9-4,1.9-6,2.9c0.1-1.3,0.3-2.6,0.5-3.9
			c0.1-0.8,0.3-1.6,0.4-2.4c0.1-0.8,0.2-1.6,0.4-2.4l0.5-2.4c0.1-0.8,0.4-1.6,0.5-2.4c0.2-0.8,0.4-1.6,0.6-2.4
			c0.2-0.8,0.4-1.6,0.6-2.4c0.2-0.8,0.5-1.6,0.7-2.4c0.2-0.8,0.5-1.6,0.8-2.3c0.2-0.8,0.5-1.6,0.8-2.3c0.3-0.8,0.5-1.6,0.9-2.3
			c0.6-1.6,1.3-3.1,1.9-4.6c0.4-0.8,0.7-1.5,1.1-2.3l1.8-3.6l1.7-2.8c0,0,4.9-7.9,19.7-17.6c4.8-3.2,14.2-8,25.2-13.1
			c-3.3,5.6-11.5,19.8-15.9,29.4C90.1,309.2,84.5,327.3,84.5,327.3z M115.1,444.2C115.1,444.2,115,444.2,115.1,444.2L115.1,444.2z
			 M141.4,297.2c-0.1,1.1-0.2,2.2-0.2,3.3l0,0c0,0-5.3,42.6-6.2,60.2c-0.9,17.6,0.2,36.6,0.2,36.6l-0.6,11.9l-0.4,2.8l-0.5,2.8
			c-0.2,0.9-0.4,1.8-0.6,2.7c-0.3,0.9-0.5,1.8-0.8,2.7c-0.5,1.8-1.2,3.5-1.8,5.2c-0.3,0.8-0.7,1.7-1.1,2.5c-0.4,0.8-0.8,1.6-1.2,2.4
			c-1.2,2.2-2.6,4.3-4.1,6.3c-0.1-0.7-0.3-1.4-0.5-2.1c-0.6-2.8-1.5-5.5-2.5-8.1c-1-2.6-2.2-5.2-3.4-7.7c-1.2-2.5-2.5-4.9-3.8-7.2
			l-1.9-3.5c-0.6-1.2-1.4-2.4-2-3.5c-1.4-2.3-2.9-4.6-4.5-6.7l-4.5-6.3c-1.4-2-2.7-4.1-3.9-6.1c-1.1-2-2.1-4.2-2.9-6.3l-0.5-1.5
			l-0.6-1.8l-0.3-0.9l-0.2-0.8l-0.5-1.9c-0.6-2.5-1.2-4.9-1.6-7.3c-0.4-2.4-0.7-4.6-0.8-6.9c-0.1-2.3-0.1-4.6,0.1-6.9
			c0.2-2.3,0.5-4.7,0.9-7.1c0.2-1.2,0.4-2.4,0.6-3.6l0.7-3.6c0,0,8.1-27.4,14.3-42.7c5-12.3,19.7-29.3,25.2-35.5
			c16.6-7.4,32.7-14.3,39.9-17.1c0.2,0,0.4-0.1,0.5-0.1c-1.7,1.4-3.4,2.8-5,4.3c-7.2,6.7-13.2,14.6-17.6,23.4
			C145.1,277.6,142.3,287.3,141.4,297.2z M373.8,395.8c9.6,0.9,14.8,3.3,16.5,4.2c-1.5-0.2-6.2,0.9-22,10c0,0-12.1,7.6-25.5,19.6
			s-32.3,15.2-32.3,15.2c-5.9,0.8-11.8,1.4-17.7,1.7c-5.9,0.4-11.9,0.6-17.8,0.6c-6,0-11.9,0-17.9-0.3c-6-0.2-11.9-0.5-17.9-0.9
			c-5.9-0.4-11.7-1.1-17.5-2c-5.8-1-11.5-2.2-17-3.9c-5.6-1.6-11-3.7-16.3-6.1c-5.3-2.4-10.6-4.9-15.4-8.2
			c-16-11.2-24.3-30.2-29.5-40.1c0,0-1.4-9.9-0.5-24.7c0.6-10.3,2.3-22.8,3.2-28.8c0.9,2.7,2,5.3,3.2,7.9c2,4.4,4.4,8.7,7.1,12.7
			c10.9,16.1,27,28.4,45.2,35c2.8,1,5.6,1.8,8.4,2.6l0,0c0,0,30.4,8.2,56.7,9.8s29.3,3,63.8-1.9C346.5,396,363.1,394.8,373.8,395.8z
			 M411.6,191c-1.2,4.8-2.2,9.6-3.4,14.4c-0.6,2.4-1,4.8-1.5,7.3l-1.4,7.3c-0.5,2.4-0.8,4.9-1.3,7.3l-1.2,7.3l-1,7.4l-0.5,3.7
			l-0.4,3.7l-0.9,7.4l-0.8,7.4c-0.5,4.9-0.9,9.8-1.4,14.7c-0.5,4.7-1.3,9.6-2,14.4c-0.8,4.8-1.7,9.5-2.8,14.1
			c-1.1,4.6-2.4,9.2-3.8,13.6c-1.5,4.4-3.2,8.6-5.2,12.6c-2,4-4.2,7.8-6.8,11.4c-2.5,3.6-5.4,7-8.4,10.4c-3.1,3.4-6.3,6.7-9.7,10
			c-6.8,6.6-19.7,20.8-46.2,25.9c-16.9,3.3-37.9,1-51-1.2c17.2-4.5,33.3-13.1,46.6-24.8c14.2-12.5,25.3-28.4,32-46.2
			c3.3-8.9,5.5-18.2,6.4-27.6c0.5-4.7,0.6-9.5,0.5-14.2l-0.1-1.7l-0.1-1.8l-0.1-1.6l-0.1-1.8c-0.2-2.4-0.5-4.7-0.8-7.1
			c-0.2-1.6-0.5-3.1-0.8-4.7c2-5.3,6.1-14.6,12.7-24.7c10.3-15.6,14.3-19.8,14.3-19.8l9.2-8.9c0.3-0.3,0.6-0.6,0.8-0.9
			c0.6-0.6,1.2-1.2,1.8-1.7c0.7-0.5,1.3-1,2.1-1.5c0.7-0.5,1.5-0.9,2.3-1.3c3.3-1.7,7.2-2.9,11.3-4.3c3.9-1.3,7.9-2.8,11.9-4.6
			L411.6,191z"/>
		<path fill="#FFFFFF" d="M119,108.4c4.2-4.2,10.4-20.2,6.4-17.8c-4,2.4-17.9,3.4-18.3,7.2c0.6,8.6-3.6,19.7-3.6,19.7
			C109.1,117,114.6,112.8,119,108.4z"/>
	</g>
</g>
</svg>
